<?xml version="1.0" encoding="utf-8"?>
<!-- Svg Vector Icons : http://www.onlinewebfonts.com/icon -->
<!DOCTYPE svg PUBLIC "-//W3C//DTD SVG 1.1//EN" "http://www.w3.org/Graphics/SVG/1.1/DTD/svg11.dtd">
<svg version="1.1" xmlns="http://www.w3.org/2000/svg" xmlns:xlink="http://www.w3.org/1999/xlink" x="0px" y="0px" viewBox="0 0 1000 1000" enable-background="new 0 0 1000 1000" xml:space="preserve">
<metadata> Svg Vector Icons : http://www.onlinewebfonts.com/icon </metadata>
<g><g transform="translate(0.000000,511.000000) scale(0.100000,-0.100000)"><path d="M4057.5,4855.9c-400.4-70.9-781.6-270.1-1046-544.1c-53.6-57.5-159-189.7-233.7-291.2c-159-222.2-283.5-339.1-478.9-438.7c-205-105.4-348.7-145.6-818-222.2c-228-38.3-419.5-72.8-427.2-76.6c-5.7-3.8-132.2-21.1-279.7-38.3c-337.2-38.3-465.5-72.8-559.4-155.2c-97.7-82.4-128.4-187.7-109.2-365.9c70.9-660.9,651.3-1427.2,1216.5-1607.3c86.2-26.8,214.6-34.5,689.7-46c553.6-13.4,593.9-17.3,766.3-65.1c205-59.4,279.7-57.5,444.5,7.7c103.4,40.2,113,42.1,159,11.5c38.3-24.9,47.9-46,47.9-116.9c0-46-13.4-124.5-30.7-174.3c-28.7-84.3-28.7-92,5.8-134.1c19.2-24.9,70.9-92,116.9-149.4c67.1-84.3,86.2-126.4,97.7-214.6c26.8-195.4,103.4-216.5,314.2-90c120.7,72.8,180.1,72.8,159,0c-7.7-23-17.2-97.7-23-166.7c-7.7-82.4-28.7-153.3-61.3-210.7c-70.9-124.5-400.4-444.5-798.9-774c-503.8-419.5-618.8-523-672.4-616.9c-55.6-93.9-47.9-160.9,15.3-160.9c23,0,109.2,67.1,214.6,168.6c95.8,93.9,235.6,220.3,308.4,281.6c243.3,203.1,513.4,463.6,795,768.2c153.3,166.7,325.7,352.5,383.1,415.7c86.2,93.9,356.3,300.8,390.8,300.8c5.8,0,5.8-55.6-1.9-120.7c-9.6-109.2-5.7-132.2,40.2-208.8c42.1-72.8,46-93.9,30.7-151.3c-26.8-90-23-178.2,7.7-293.1c107.3-385.1,107.3-381.2-5.7-687.7c-53.6-143.7-97.7-272-97.7-281.6c0-9.6,17.2-28.7,38.3-42.1c47.9-30.6,47.9-49.8,0-111.1c-42.1-53.6-49.8-114.9-17.2-147.5c30.7-30.6,0-76.6-159-228c-205-193.5-346.7-296.9-592-431c-264.4-143.7-310.3-172.4-415.7-273.9c-109.2-101.5-172.4-222.2-120.7-222.2c9.6,0,82.4,63.2,159,139.8c101.5,97.7,214.6,182,400.4,289.3c465.5,275.8,712.6,455.9,835.3,609.2c76.6,95.8,92,141.7,63.2,197.3c-19.2,34.5-15.3,55.5,17.2,120.7c51.7,103.5,49.8,145.6-7.7,183.9l-47.9,30.7l42.1,101.5c21.1,53.6,57.5,153.3,76.6,220.3l38.3,118.8l-42.1,164.7c-34.5,136-40.2,206.9-36.4,425.3c5.7,224.1,1.9,270.1-26.8,310.4c-23,32.6-32.6,86.2-32.6,182c-1.9,149.4-47.9,285.4-147.5,431c-95.8,139.8-160.9,283.5-189.7,419.5c-32.6,155.2-111.1,1528.8-93.9,1649.5c36.4,241.4,91.9,262.5,321.8,111.1c193.5-128.4,337.2-285.4,569-628.3c335.3-496.2,413.8-528.8,906.1-369.7c189.7,61.3,241.4,70.9,446.4,74.7c180.1,5.7,251,15.3,321.9,46c101.5,42.1,185.8,49.8,245.2,17.2c23-13.4,111.1-28.7,195.4-38.3c86.2-7.7,228-23,318-34.5c90-9.6,250.9-28.7,360.1-40.2c126.5-11.5,241.4-36.4,318-67.1c197.3-78.6,199.2-78.6,440.6,174.3c116.8,122.6,220.3,235.6,228,249c36.4,61.3,544.1,507.7,620.7,546c153.3,72.8,147.5,101.5,132.2-768.2c-15.3-933-23-1011.5-122.6-1226.1c-151.3-323.8-185.8-494.2-128.3-643.7c32.6-86.2,32.6-90-9.6-162.8c-70.9-130.3-78.5-178.2-32.6-268.2c38.3-80.4,38.3-84.3,7.7-283.5c-24.9-160.9-30.7-289.3-23-614.9c7.7-327.6,1.9-452.1-23-609.2c-26.8-160.9-28.7-210.7-9.6-281.6c36.4-136,28.7-222.2-24.9-300.8c-36.4-53.6-47.9-95.8-47.9-168.6c0-53.6-13.4-124.5-30.6-157.1c-17.2-32.6-46-159-67.1-281.6c-69-429.1-164.8-680.1-402.3-1040.2c-201.2-308.4-252.9-436.8-170.5-436.8c23,0,53.6,28.7,82.4,80.5c24.9,46,130.3,231.8,233.7,413.8c243.3,431,304.6,574.7,362.1,865.9c24.9,132.2,59.4,275.9,74.7,316.1c17.3,42.1,34.5,116.9,40.2,168.6c5.7,49.8,24.9,118.8,44.1,153.3c26.8,51.7,32.6,141.8,42.2,588.1c5.7,289.3,7.6,660.9,5.7,823.8c-5.7,268.2,0,316.1,46,498.1l51.7,201.2l-51.7,111.1l-53.6,109.2l51.7,88.1c49.8,84.3,51.7,95.8,30.6,195.4c-11.5,57.5-21.1,151.4-21.1,208.8c0,103.4,11.5,141.7,151.3,507.7c114.9,298.8,128.3,457.8,99.6,1229.9c-11.5,341-30.6,649.4-42.1,687.8c-23,86.2-107.3,137.9-189.7,118.8c-92-21.1-203.1-114.9-622.6-526.8c-220.3-218.4-431-411.9-465.5-429.1c-57.5-30.6-72.8-30.6-153.3-3.8c-139.8,44.1-168.6,47.9-475.1,67.1c-159,11.5-308.4,26.8-331.4,36.4c-30.6,11.5-70.9,78.5-143.7,243.3c-421.5,959.8-959.8,1775.9-1421.5,2157.1c-356.3,295-682,463.6-1088.1,565.1C4712.7,4878.9,4285.5,4896.1,4057.5,4855.9z M4875.6,4624.1c350.6-72.8,741.4-275.9,1000-515.3c394.6-365.9,931-1067.1,1199.2-1563.2c139.8-262.5,287.4-607.3,273.9-643.7c-13.4-32.5-86.2-34.5-187.7-3.8c-63.2,19.2-93.9,15.3-216.5-23c-136-42.1-149.4-44.1-306.5-19.2c-90,13.4-162.8,30.6-162.8,38.3c0,7.6,19.2,63.2,42.1,126.4c30.6,88.1,40.2,159,42.1,323.8c1.9,193.5-1.9,220.3-51.7,323.7c-36.4,78.6-97.7,159-195.4,254.8c-80.5,76.6-183.9,201.2-231.8,275.9c-132.2,205-229.9,291.2-484.7,413.8c-197.3,95.8-241.4,128.3-385.1,272c-90,90-222.2,231.8-295,316.1c-139.9,159-224.1,222.2-293.1,222.2c-80.5,0-69-42.1,36.4-141.8c57.5-53.6,143.7-160.9,189.7-239.5c160.9-273.9,362.1-444.4,789.3-672.4c182-97.7,195.4-109.2,319.9-277.8c70.9-95.8,193.5-239.5,272-318c113-113,147.5-162.8,174.3-245.2c55.6-176.3,38.3-413.8-49.8-616.9c-23-55.5-42.2-72.8-95.8-82.4c-36.4-7.6-118.8-34.5-182-59.4c-178.2-72.8-254.8-78.6-354.4-30.7c-46,23-99.6,57.5-116.8,76.6c-28.7,32.6-28.7,42.1,19.2,143.7c124.5,274,137.9,528.8,26.8,528.8c-53.6,0-90-69-101.5-195.4c-9.6-109.2-69-321.8-88.1-321.8c-5.8,0-53.7,57.5-107.3,128.3c-51.7,69-132.2,168.6-178.2,218.4l-84.3,93.9l30.7,139.8c70.9,344.8,57.5,595.8-38.3,685.8c-38.3,34.5-55.6,40.2-80.5,24.9c-28.7-19.2-32.6-61.3-32.6-335.3c0-172.4-7.7-325.7-15.3-337.2c-11.5-17.2-53.6,3.8-153.3,78.5c-160.9,120.7-228,157.1-321.8,174.3l-67.1,13.4l28.7,126.4c19.2,84.3,28.7,231.8,30.7,425.3c0,272-3.8,304.6-44.1,396.6c-24.9,53.6-61.3,113-82.4,132.2c-32.6,28.7-36.4,28.7-47.9,0c-5.7-17.2,7.7-76.6,30.7-132.2c55.6-126.4,72.8-385.1,38.3-574.7c-47.9-279.7-178.2-628.4-459.8-1239.5c-107.3-231.8-174.3-394.6-275.9-674.3c-40.2-107.3-97.7-134.1-256.7-118.8c-78.5,7.7-134.1,1.9-195.4-21.1c-132.2-49.8-206.9-53.6-419.5-21.1c-145.6,23-316.1,30.7-695.4,28.7c-542.1-3.8-613,5.8-835.2,107.3c-287.4,132.2-735.6,620.7-808.4,883.1c-32.6,114.9-7.7,170.5,105.4,218.4c93.9,40.2,99.6,53.6,109.2,249c5.7,107.3,17.2,139.8,70.9,214.6c67.1,93.9,65.1,130.3-7.7,130.3c-120.7,0-143.7,63.2-32.6,95.8c118.8,32.6,440.6,93.9,664.8,122.6c116.9,17.2,314.2,44.1,440.6,61.3c475.1,65.1,751,166.7,954,352.5c59.4,55.5,180.1,195.4,270.1,314.2c183.9,247.1,327.6,383.1,524.9,500c153.3,90,444.5,193.5,626.4,220.3C4312.3,4677.7,4697.4,4662.4,4875.6,4624.1z M4281.7,1618.3c17.2-808.4,28.7-865.9,229.9-1187.7c47.9-76.6,86.2-147.5,86.2-159c0-28.7-283.5-183.9-316.1-170.5c-40.2,15.3-36.4,57.5,19.2,249c76.6,268.2,53.6,394.6-46,258.6c-84.3-111.1-323.8-337.2-387-362.1c-53.6-23-63.2-23-88.1,11.5c-17.2,23-23,59.4-15.3,97.7c19.2,107.3-5.7,159-99.6,199.2c-46,19.2-88.1,49.8-95.8,67.1c-19.2,51.7,46,226.1,243.3,639.9c103.4,216.5,243.3,532.6,310.4,703.1c101.5,258.6,122.6,298.8,134.1,258.6C4264.4,2196.8,4275.9,1922.9,4281.7,1618.3z"/><path d="M3053.7,3719.8c-3.8-19.2-38.3-92-74.7-162.8c-78.5-151.3-86.2-260.5-28.7-354.4c69-113,245.2-170.5,375.5-118.8c72.8,26.8,130.3,9.6,160.9-49.8c15.3-28.7,42.1-47.9,69-47.9c63.2,0,78.5,99.6,36.4,241.4c-26.8,93.9-55.6,136-178.2,262.5c-132.2,137.9-291.2,262.5-333.3,262.5C3070.9,3752.4,3059.5,3737.1,3053.7,3719.8z M3199.3,3409.5c0-53.6-53.6-90-92-65.1c-46,28.7-51.7,84.3-13.4,113C3136.1,3490,3199.3,3459.3,3199.3,3409.5z"/><path d="M9640,2417.2c-46-86.2-47.9-561.3-3.8-561.3c36.4,0,101.5,440.6,78.5,530.7C9697.4,2449.7,9662.9,2463.1,9640,2417.2z"/><path d="M5000.1,1539.8c0-38.3,241.4-291.2,348.7-365.9c51.7-36.4,72.8-63.2,69-92c-15.3-109.2-229.9-23-440.6,174.3c-72.8,69-137.9,118.8-143.7,113c-23-21.1,101.5-172.4,277.8-337.2c99.6-93.9,174.3-178.2,168.6-189.7c-17.2-26.8-61.3-7.7-174.3,74.7c-111.1,82.4-182,120.7-193.5,109.2c-3.8-3.8,38.3-61.3,97.7-126.4c57.5-65.1,105.4-122.6,105.4-128.4c0-5.7-51.7-5.7-114.9,1.9c-97.7,11.5-114.9,9.6-114.9-17.2c0-49.8,78.5-76.6,224.1-76.6c180.1-1.9,220.3,28.7,329.5,243.3c90,176.3,114.9,310.4,59.4,339.1c-15.3,9.6-78.5,40.2-141.7,69c-61.3,26.8-157.1,86.2-210.7,130.3C5013.5,1570.4,5000.1,1576.1,5000.1,1539.8z"/><path d="M9049.9,1463.1c-30.7-32.6-88.1-95.8-126.5-143.7l-69-84.3l-24.9,49.8c-30.7,69-55.6,49.8-55.6-38.3c0-95.8,95.8-291.2,197.3-400.4c44.1-51.7,97.7-114.9,114.9-143.7c19.2-30.6,49.8-53.6,72.8-53.6c57.5,0,314.2,237.5,360.2,333.3c40.2,80.5,53.6,164.8,26.8,164.8c-9.6,0-42.1-49.8-74.7-111.1c-46-84.3-80.5-122.6-160.9-170.5c-111.1-67.1-205-82.4-222.2-34.5c-7.7,17.2,24.9,103.4,69,191.6c46,90,76.6,170.5,69,178.2c-7.7,5.7-65.1-44.1-126.4-111.1c-63.2-69-113-114.9-114.9-101.5c0,11.5,36.4,95.8,78.5,185.8c80.5,168.6,86.2,218.4,17.3,155.2c-47.9-44.1-47.9-26.8,1.9,69C9134.2,1503.3,9118.9,1534,9049.9,1463.1z"/><path d="M6314.3,1217.9c-7.7-44.1-63.2-183.9-126.4-308.4C6065.2,668.1,6057.6,624,6092,438.2c30.6-162.8,49.8-159,78.5,19.2c9.6,67.1,51.7,199.2,92,295c82.4,193.5,116.8,321.9,116.8,421.5C6379.4,1313.7,6333.4,1346.3,6314.3,1217.9z"/><path d="M7670.6,1081.9c19.2-189.6,57.5-291.2,155.2-410c49.8-59.4,109.2-145.6,130.3-189.7c40.2-82.4,82.4-113,65.1-47.9c-5.7,17.2-15.3,67.1-23,109.2c-7.7,42.1-49.8,145.6-95.8,229.9c-46,84.3-88.1,174.3-95.8,201.2c-32.6,114.9-93.9,229.9-120.7,229.9C7662.9,1204.5,7659.1,1183.4,7670.6,1081.9z"/><path d="M6724.2,716c-9.6-26.8-19.2-69-19.2-92c0-23-17.2-114.9-38.3-205c-65.1-279.7-49.8-367.8,103.5-592c59.4-88.1,69-116.9,70.9-220.3c0-63.2,7.7-159,15.3-212.6c13.4-93.9,15.3-93.9,30.6-38.3c9.6,32.6,19.2,153.3,19.2,268.2c0,195.4-3.8,218.4-57.5,325.7c-55.6,114.9-55.6,116.9-57.5,457.9c0,256.7-5.7,344.8-23,350.6C6754.9,763.9,6735.7,744.7,6724.2,716z"/><path d="M7318.1,679.6c0-15.3,30.6-136,69-270.1c76.6-264.4,76.6-241.4-1.9-507.7c-21.1-70.9-28.7-143.7-21.1-222.2c9.6-116.8,78.5-333.3,105.4-333.3c9.6,0,15.3,70.9,15.3,159c0,86.2,15.3,229.9,32.6,318c21.1,101.5,32.5,216.5,26.8,308.4c-5.7,128.4-17.2,168.6-86.2,308.4c-46,88.1-86.2,183.9-93.9,214.6C7352.6,708.3,7318.1,727.5,7318.1,679.6z"/><path d="M8436.9-21.6c-53.7-7.7-139.9-28.7-191.6-46c-252.9-84.3-498.1-411.9-519.2-691.6c-7.6-124.5-13.4-124.5,76.6-1.9c23,32.6,53.6,36.4,254.8,38.3c222.2,1.9,233.7,3.8,362.1,69c159,80.5,199.2,132.2,272,362.1c34.5,103.5,70.9,180.1,101.5,206.9c40.2,36.4,44.1,46,19.2,63.2C8779.8-0.5,8582.5-0.5,8436.9-21.6z M8601.6-199.7c0-293.1-178.2-456-498.1-457.9c-162.8,0-210.7,19.2-210.7,84.3c0,34.5,9.6,36.4,72.8,26.8c214.6-34.5,222.2-34.5,308.4,11.5c47.9,24.9,113,76.6,143.7,116.8c49.8,63.2,59.4,92,63.2,189.7c3.8,124.5,26.8,159,86.2,128.3C8592-113.5,8601.6-140.3,8601.6-199.7z M8400.5-203.5c0-28.7-11.5-36.4-47.9-32.6c-46,3.8-114.9,15.3-134.1,21.1c-5.7,1.9,7.7,15.3,28.7,32.6C8302.8-140.3,8400.5-153.8,8400.5-203.5z M8095.9-416.2c70.9-26.8,86.2-26.8,147.5,0c82.4,34.5,92,11.5,21.1-44.1c-88.1-69-275.9-36.4-275.9,47.9C7988.6-377.9,7998.2-377.9,8095.9-416.2z"/><path d="M5496.3-148c-264.4-55.5-373.6-122.6-203.1-122.6h84.3l97.7-151.3c183.9-291.2,356.3-364,756.7-319.9l149.4,15.3l95.8-97.7c105.4-109.2,113-95.8,53.7,78.6c-103.5,306.5-379.3,551.7-685.8,609.2C5714.6-111.6,5653.3-113.5,5496.3-148z M5651.4-249.5c9.6-21.1,19.2-65.1,19.2-97.7c0-189.7,178.2-335.3,369.7-298.9c36.4,5.8,101.5,42.1,145.6,80.5c82.4,70.9,136,74.7,136,11.5c0-122.6-289.3-180.1-505.7-99.6c-153.3,57.5-318,249-318,369.7c0,59.4,13.4,70.9,78.6,70.9C5611.2-213.1,5638-226.5,5651.4-249.5z M5852.6-535c-5.7-5.8-26.8,5.7-47.9,24.9c-46,42.2-84.3,153.3-67.1,197.3c9.6,24.9,26.8,0,69-90C5837.3-469.8,5858.3-529.2,5852.6-535z M6092-330c84.3-51.7,97.7-72.8,74.7-116.8c-24.9-44.1-47.9-44.1-61.3,1.9c-3.8,19.2-32.6,47.9-63.2,61.3c-57.5,28.7-86.2,93.9-42.1,93.9C6013.5-289.8,6055.6-308.9,6092-330z"/><path d="M8802.8-289.8c-19.2-30.7,318-536.4,358.2-536.4c11.5,0,15.3,11.5,9.6,24.9c-153.3,350.6-199.2,442.5-235.6,482.8C8889-268.7,8823.8-255.3,8802.8-289.8z"/><path d="M5207-437.3c-57.5-67.1-95.8-162.8-84.3-218.4c5.7-30.6-1.9-90-17.3-134.1c-15.3-44.1-28.7-101.5-28.7-126.4c0-44.1,3.8-46,30.7-23c49.8,42.1,218.4,289.3,218.4,319.9c0,17.3-15.3,46-32.6,65.1c-24.9,26.8-26.8,40.2-9.6,57.5c13.4,13.4,23,38.3,23,57.5C5306.6-395.1,5245.3-393.2,5207-437.3z"/><path d="M8831.5-747.6c0-32.6,206.9-482.8,256.7-559.4c26.8-40.2,69-84.3,92-95.8c42.1-23,42.1-23,9.6,23c-69,97.7-111.1,195.4-157.1,365.9c-26.8,97.7-63.2,199.2-82.4,226.1C8913.9-740,8831.5-711.2,8831.5-747.6z"/><path d="M5153.3-1069.5c-99.6-139.8-178.2-300.8-168.6-344.8c19.2-84.3,302.7,302.7,302.7,413.8C5287.4-929.6,5233.8-956.4,5153.3-1069.5z"/><path d="M6733.8-1333.8c-93.9-24.9-180.1-46-191.6-47.9c-9.6,0,7.7-15.3,38.3-36.4c32.6-19.2,93.9-78.5,139.8-134.1c57.5-67.1,97.7-97.7,128.4-97.7c61.3,0,160.9-88.1,203.1-182c40.2-88.1,46-272,11.5-373.6c-30.7-90-122.6-145.6-287.4-174.3c-218.4-36.4-218.4-57.5-1.9-51.7c201.1,7.7,201.1,7.7,339.1,116.9l69,53.6l97.7-67.1c88.1-61.3,114.9-69,218.4-69c63.2,0,151.3,9.6,193.5,23c74.7,23,72.8,23-113,38.3c-113,7.6-205,24.9-231.8,42.1c-65.1,42.1-95.8,151.3-95.8,341c0,149.4,3.8,170.5,46,214.5c26.8,26.8,67,49.8,90,49.8c47.9,0,180.1,118.8,180.1,159c0,15.3,26.8,49.8,57.5,80.5c69,65.1,72.8,86.2,15.3,86.2c-24.9,0-107.3,17.2-185.8,38.3C7247.2-1268.7,6959.9-1272.5,6733.8-1333.8z M7360.3-1404.7c53.6-19.2,84.3-76.6,63.2-111.1c-7.7-11.5-28.7-7.7-57.5,11.5c-51.7,32.6-59.4,28.7-149.4-107.3c-61.3-93.9-109.2-88.1-160.9,19.2c-23,47.9-46,95.8-49.8,105.4c-3.8,11.5-26.8,9.6-57.5-7.7c-59.4-32.6-78.6-21.1-61.3,34.5C6912-1377.9,7201.2-1343.4,7360.3-1404.7z"/><path d="M8390.9-1358.7c124.5-95.8,220.3-205,296.9-335.3c97.7-168.6,191.6-252.9,325.7-291.2c160.9-47.9,191.6-28.7,65.1,42.1c-134.1,74.7-205,145.6-321.9,319.9C8615-1414.3,8479-1303.2,8366-1307C8327.7-1307,8331.5-1312.8,8390.9-1358.7z"/><path d="M5798.9-1337.7c-3.8-9.6-13.4-38.3-21.1-67.1c-5.8-28.7-72.8-109.2-151.3-183.9c-74.7-72.8-197.3-187.8-272-258.6c-72.8-69-128.3-132.2-120.7-139.9c15.3-13.4,415.7,237.6,500,316.1c90,82.4,141.8,203.1,132.2,314.2C5862.1-1324.2,5814.3-1310.8,5798.9-1337.7z"/><path d="M8053.7-1690.2c-15.3-26.8,21.1-63.2,47.9-47.9c11.5,7.7,21.1,26.8,21.1,42.1C8122.7-1665.2,8072.9-1659.5,8053.7-1690.2z"/><path d="M6521.2-1755.3c-7.7-17.2-3.8-40.2,5.7-49.8c26.8-26.8,86.2,1.9,78.5,38.3C6597.8-1724.6,6534.6-1717,6521.2-1755.3z"/><path d="M5731.9-1841.5c-145.6-101.5-176.3-134.1-130.3-134.1c30.6,0,210.7,101.5,266.3,149.4c34.5,30.6,44.1,80.5,17.2,80.5C5875.6-1745.7,5806.6-1787.9,5731.9-1841.5z"/><path d="M7712.7-1795.5c-17.2-44.1-15.3-46,24.9-46c36.4,0,67.1,44.1,46,65.1C7760.6-1755.3,7724.2-1764.9,7712.7-1795.5z"/><path d="M8574.8-1856.8c-13.4-23,291.2-291.2,333.3-291.2c21.1,0,38.3,7.7,38.3,15.3c0,7.7-53.6,67.1-118.8,132.2C8680.2-1858.7,8601.6-1812.8,8574.8-1856.8z"/><path d="M6297-1929.6c-30.7-30.6-11.5-67.1,30.6-61.3c23,3.8,42.2,19.2,42.2,34.5C6369.8-1925.8,6320-1908.5,6297-1929.6z"/><path d="M7969.4-1987.1c0-17.2,9.6-26.8,23-23c34.5,11.5,40.2,53.6,7.6,53.6C7982.9-1956.4,7969.4-1969.8,7969.4-1987.1z"/><path d="M4889-2040.7c-34.5-92-176.3-245.2-415.7-442.5c-183.9-153.3-273.9-249-252.9-270.1c15.3-17.2,584.3,375.5,643.7,444.4c128.4,145.6,174.3,316.1,88.1,329.5C4921.5-1975.6,4906.2-1990.9,4889-2040.7z"/><path d="M6638-2033.1c-7.7-13.4-5.7-30.7,5.7-42.1c26.8-26.8,86.2-3.8,76.6,28.7C6708.9-2015.8,6655.3-2006.2,6638-2033.1z"/><path d="M5645.7-2184.4c-74.7-72.8-132.2-137.9-126.4-145.6c34.5-34.5,304.6,180.1,304.6,243.3C5823.8-2029.2,5791.3-2046.5,5645.7-2184.4z"/><path d="M8283.6-2264.9c-124.5-65.1-224.2-141.8-411.9-316.1c-214.6-201.1-404.2-270.1-691.6-250.9c-162.8,9.6-231.8,30.7-657.1,185.8c-51.7,19.2-101.5,30.6-111.1,24.9c-13.4-7.7,38.3-40.2,379.3-235.6c185.8-107.3,455.9-141.8,666.7-86.2c183.9,47.9,285.4,113,523,335.3c254.8,237.5,358.3,318,440.6,335.3c103.5,24.9,122.6,30.6,122.6,49.8C8544.2-2182.5,8390.9-2207.4,8283.6-2264.9z"/><path d="M6099.7-2967.9c-34.5-21.1-233.7-429.1-283.5-582.4c-63.2-187.7-109.2-423.4-88.1-444.5c19.2-19.2,76.6,88.1,122.6,228c17.2,53.6,90,197.3,162.8,321.8c149.4,256.7,187.7,360.2,157.1,440.6C6149.5-2950.7,6136.1-2943,6099.7-2967.9z"/><path d="M6551.8-3052.2c-26.8-63.2-134.1-503.8-134.1-546c1.9-47.9,70.9,88.1,137.9,268.2c53.6,147.5,72.8,319.9,34.5,319.9C6578.6-3010.1,6561.4-3029.2,6551.8-3052.2z"/><path d="M6887.1-3592.5c-32.6-78.5-38.3-212.6-9.6-193.5c28.7,17.2,76.6,139.8,76.6,193.5C6954.1-3519.7,6917.7-3519.7,6887.1-3592.5z"/><path d="M7300.8-3655.7c-26.8-93.9-26.8-101.5,5.8-101.5c30.6,0,78.5,122.6,59.4,153.3C7343-3567.5,7320-3584.8,7300.8-3655.7z"/></g></g>
</svg>